<svg xmlns="http://www.w3.org/2000/svg" viewBox="0 0 512 512">
  <defs>
    <linearGradient id="grad1" x1="0%" y1="0%" x2="100%" y2="100%">
      <stop offset="0%" style="stop-color:#0F2C59;stop-opacity:1" />
      <stop offset="100%" style="stop-color:#0b1e3b;stop-opacity:1" />
    </linearGradient>
  </defs>
  <path d="M256 0C114.6 0 0 114.6 0 256s114.6 256 256 256 256-114.6 256-256S397.4 0 256 0z" fill="url(#grad1)"/>
  <path d="M256 472c-119.3 0-216-96.7-216-216S136.7 40 256 40s216 96.7 216 216-96.7 216-216 216zm0-412C147.8 60 60 147.8 60 256s87.8 196 196 196 196-87.8 196-196S364.2 60 256 60z" fill="#DAC0A3"/>
  <text x="50%" y="55%" dominant-baseline="middle" text-anchor="middle" font-family="Arial, sans-serif" font-weight="bold" font-size="280" fill="#ffffff">K3</text>
  <path d="M256 100v40a120 120 0 0 1 0 240v40c-150 0-200-160-200-160s50-160 200-160z" fill="#ffffff" opacity="0.1"/>
</svg>